Coordinates
version=1
nRows=16
nColumns=40
inDegrees=yes

Units are S.I. units (second, meters, Newtons, ...)
If the header above contains a line with 'inDegrees', this indicates whether rotational values are in degrees (yes) or radians (no).

endheader
time	pelvis_tilt	pelvis_list	pelvis_rotation	pelvis_tx	pelvis_ty	pelvis_tz	hip_flexion_r	hip_adduction_r	hip_rotation_r	knee_angle_r	knee_angle_r_beta	ankle_angle_r	subtalar_angle_r	mtp_angle_r	hip_flexion_l	hip_adduction_l	hip_rotation_l	knee_angle_l	knee_angle_l_beta	ankle_angle_l	subtalar_angle_l	mtp_angle_l	lumbar_extension	lumbar_bending	lumbar_rotation	arm_flex_r	arm_add_r	arm_rot_r	elbow_flex_r	pro_sup_r	wrist_flex_r	wrist_dev_r	arm_flex_l	arm_add_l	arm_rot_l	elbow_flex_l	pro_sup_l	wrist_flex_l	wrist_dev_l
      0.64000000	     15.19571071	     -2.52673862	     -2.33187277	      0.94499945	      0.93141447	     -0.34442468	    -29.72551280	      1.95813466	     -1.03596075	     28.99029799	      0.50597615	    -14.95098016	      0.00000000	      0.00000000	     17.85060218	     -2.04775978	      1.89922071	     26.37373161	      0.46030845	    -15.60419975	      0.00000000	      0.00000000	    -29.50029241	      0.92931923	      6.68152475	     12.48404561	    -15.87038494	     19.75813627	     44.41242824	     77.78956659	      0.00000000	      0.00000000	      0.40333960	    -17.60687311	     17.10813881	     40.97209748	     79.90678203	      0.00000000	      0.00000000
      0.64400000	     15.24120884	     -2.30731099	     -2.13899709	      0.95171067	      0.93200943	     -0.34511512	    -29.72248652	      1.73969192	     -1.29393843	     29.38071003	      0.51279013	    -16.57432994	      0.00000000	      0.00000000	     17.75234094	     -1.65898783	      2.26317901	     26.99828050	      0.47120889	    -15.58901021	      0.00000000	      0.00000000	    -29.50504905	      0.74119042	      6.42750762	     12.15803049	    -15.66321771	     19.43215063	     44.19540117	     77.94815014	      0.00000000	      0.00000000	      0.44196448	    -17.64153769	     17.22104224	     40.91204396	     79.87697628	      0.00000000	      0.00000000
      0.64800000	     15.33480036	     -2.05563418	     -1.72576018	      0.95816110	      0.93264865	     -0.34583890	    -29.72422398	      1.58817749	     -1.88240214	     29.82874206	      0.52060976	    -18.32263722	      0.00000000	      0.00000000	     17.58612473	     -1.18660313	      2.77952428	     27.48075987	      0.47962974	    -15.75833910	      0.00000000	      0.00000000	    -29.60352024	      0.57565200	      5.95441701	     11.88401604	    -15.42925150	     19.15527255	     44.01306691	     78.06552803	      0.00000000	      0.00000000	      0.24471142	    -17.88607397	     17.15010826	     41.49994225	     79.82421281	      0.00000000	      0.00000000
      0.65200000	     15.42307791	     -1.85781079	     -1.60875587	      0.96491622	      0.93345985	     -0.34641319	    -29.71693381	      1.34098518	     -2.13514227	     30.26547353	      0.52823216	    -19.95507404	      0.00000000	      0.00000000	     17.29712560	     -0.85556763	      3.02151020	     27.84666136	      0.48601593	    -15.87416359	      0.00000000	      0.00000000	    -29.64849439	      0.35636900	      5.68650598	     11.65909398	    -15.22428229	     19.04617854	     43.72632766	     78.13082949	      0.00000000	      0.00000000	      0.17714625	    -17.95627207	     17.08232837	     41.60225093	     79.80190779	      0.00000000	      0.00000000
      0.65600000	     15.52389893	     -1.66363378	     -1.53200493	      0.97144342	      0.93429013	     -0.34682270	    -29.70098160	      1.15709862	     -2.01902413	     30.75858774	      0.53683863	    -21.11922712	      0.00000000	      0.00000000	     17.00876171	     -0.55713861	      3.25199289	     28.24843707	      0.49302824	    -15.99958634	      0.00000000	      0.00000000	    -29.73731817	      0.13413287	      5.48563935	     11.43522723	    -15.06418598	     18.94086851	     43.54628909	     78.11191529	      0.00000000	      0.00000000	      0.21013101	    -18.03095876	     17.09871561	     41.56675680	     79.82613294	      0.00000000	      0.00000000
      0.66000000	     15.65034789	     -1.50122772	     -1.39643817	      0.97825582	      0.93517640	     -0.34719775	    -29.68005776	      0.95988044	     -2.29763635	     31.24484168	      0.54532536	    -22.79663317	      0.00000000	      0.00000000	     16.63756531	     -0.32250670	      3.29814563	     28.59865762	      0.49914074	    -15.91977788	      0.00000000	      0.00000000	    -29.81589899	     -0.04429891	      5.25717606	     11.16468325	    -14.87550805	     18.75963322	     43.28216167	     78.06351314	      0.00000000	      0.00000000	      0.17355363	    -18.12187527	     17.19352094	     41.68754151	     79.81497378	      0.00000000	      0.00000000
      0.66400000	     15.67108361	     -1.23785173	     -1.03563830	      0.98562762	      0.93591284	     -0.34790165	    -29.69345662	      0.73391839	     -3.02414121	     31.45445789	      0.54898385	    -24.72525538	      0.00000000	      0.00000000	     16.32346383	      0.08842254	      3.49621834	     28.88825440	      0.50419515	    -15.57643290	      0.00000000	      0.00000000	    -29.68863866	     -0.22013851	      4.85750255	     10.64976379	    -14.72703617	     18.81566670	     43.01099672	     78.20530627	      0.00000000	      0.00000000	      0.12383135	    -18.32775083	     17.42742633	     41.77133243	     79.85342830	      0.00000000	      0.00000000
      0.66800000	     15.77202260	     -1.07330345	     -0.85089914	      0.99225128	      0.93682630	     -0.34845799	    -29.67830975	      0.66975652	     -2.84766179	     31.92312396	      0.55716362	    -25.64655791	      0.00000000	      0.00000000	     15.95296603	      0.36116554	      3.63514026	     29.18964379	      0.50945539	    -15.42553955	      0.00000000	      0.00000000	    -29.76810935	     -0.37868097	      4.59338434	     10.38809917	    -14.56372954	     18.72059425	     42.78147423	     78.25891110	      0.00000000	      0.00000000	      0.14523294	    -18.37980436	     17.45721612	     41.84235617	     79.81188374	      0.00000000	      0.00000000
      0.67200000	     15.87989954	     -0.93001838	     -0.67994441	      0.99927446	      0.93773997	     -0.34867420	    -29.67030539	      0.50342290	     -3.21496596	     32.31645583	      0.56402856	    -27.20118535	      0.00000000	      0.00000000	     15.49190080	      0.57358720	      3.69367272	     29.44096529	      0.51384178	    -14.96921199	      0.00000000	      0.00000000	    -29.76916226	     -0.52704501	      4.37682665	     10.09105826	    -14.39957144	     18.66064963	     42.46715697	     78.38855391	      0.00000000	      0.00000000	      0.10548130	    -18.60147984	     17.71863062	     41.98296701	     79.78817214	      0.00000000	      0.00000000
      0.67600000	     16.00608829	     -0.81764177	     -0.52059587	      1.00573901	      0.93870868	     -0.34891119	    -29.64979846	      0.49980615	     -3.00839022	     32.80743411	      0.57259774	    -27.96595406	      0.00000000	      0.00000000	     15.04927733	      0.77826346	      3.88521452	     29.67711566	      0.51796338	    -14.79975820	      0.00000000	      0.00000000	    -29.87532463	     -0.65393288	      4.16193390	      9.83940297	    -14.26220105	     18.65161252	     42.30193916	     78.43255390	      0.00000000	      0.00000000	      0.16202039	    -18.74030555	     17.82505096	     42.04045484	     79.77893796	      0.00000000	      0.00000000
      0.68000000	     16.17972914	     -0.60786402	     -0.36699444	      1.01260297	      0.93973765	     -0.34939908	    -29.63394888	      0.23419357	     -3.29124452	     33.35162402	      0.58209565	    -29.21012014	      0.00000000	      0.00000000	     14.43146252	      1.08868254	      3.93485335	     29.77717561	      0.51970976	    -14.33268710	      0.00000000	      0.00000000	    -29.97158916	     -0.85099435	      3.90023376	      9.56386076	    -14.14407944	     18.66759558	     42.05186773	     78.55441007	      0.00000000	      0.00000000	      0.12617068	    -18.93105263	     18.09279322	     42.25705627	     79.68838753	      0.00000000	      0.00000000
      0.68400000	     16.39850638	     -0.53442528	     -0.25500810	      1.01885146	      0.94084501	     -0.34991163	    -29.59965070	      0.17386792	     -3.16266150	     33.99191912	      0.59327091	    -29.96827406	      0.00000000	      0.00000000	     13.85132581	      1.23398875	      3.99588733	     29.94443478	      0.52262898	    -14.15339664	      0.00000000	      0.00000000	    -30.20613303	     -0.93492810	      3.72799300	      9.36887679	    -14.09975827	     18.68534529	     41.86754616	     78.57762301	      0.00000000	      0.00000000	      0.19377873	    -19.00504090	     18.19831586	     42.43476386	     79.60283772	      0.00000000	      0.00000000
      0.68800000	     16.61788527	     -0.29972958	     -0.18806130	      1.02535173	      0.94206957	     -0.35075730	    -29.56671646	     -0.12720369	     -3.20364904	     34.60419503	      0.60395714	    -30.88574172	      0.00000000	      0.00000000	     13.11636208	      1.58417830	      4.04474626	     29.88649840	      0.52161780	    -13.77323040	      0.00000000	      0.00000000	    -30.35394275	     -1.12937060	      3.53268613	      9.20153429	    -14.12324967	     18.99823757	     41.56141720	     78.62131151	      0.00000000	      0.00000000	      0.53781812	    -19.00410092	     18.71983373	     41.97116952	     79.47660260	      0.00000000	      0.00000000
      0.69200000	     16.85739407	     -0.23781341	     -0.03200570	      1.03161342	      0.94330064	     -0.35122559	    -29.52653079	     -0.18213152	     -3.21762307	     35.28392278	      0.61582063	    -31.41534386	      0.00000000	      0.00000000	     12.47760771	      1.69391687	      4.05837039	     29.99566868	      0.52352318	    -13.55455347	      0.00000000	      0.00000000	    -30.59604627	     -1.16904839	      3.32490397	      8.99252651	    -14.05624131	     19.00589963	     41.41602888	     78.62976067	      0.00000000	      0.00000000	      0.64135006	    -19.07013791	     18.88241773	     42.05653735	     79.36033608	      0.00000000	      0.00000000
      0.69600000	     17.10986595	      0.01728467	      0.03727348	      1.03813914	      0.94451466	     -0.35208839	    -29.48561324	     -0.50895668	     -3.29505790	     36.01209655	      0.62852966	    -31.93211036	      0.00000000	      0.00000000	     11.67342596	      2.02750382	      3.99349185	     29.88518700	      0.52159491	    -13.10257660	      0.00000000	      0.00000000	    -30.79950474	     -1.39034157	      3.11500194	      8.74794892	    -14.10541566	     19.13342966	     41.28332386	     78.66477398	      0.00000000	      0.00000000	      0.71045132	    -19.21298587	     19.16000869	     42.16233957	     79.16672397	      0.00000000	      0.00000000
      0.70000000	     17.39231225	      0.09485009	      0.16076141	      1.04430174	      0.94581094	     -0.35269249	    -29.42853027	     -0.62091294	     -3.33873625	     36.76006206	      0.64158412	    -32.30593421	      0.00000000	      0.00000000	     10.92087932	      2.13654772	      3.93673416	     29.87465884	      0.52141116	    -12.79994496	      0.00000000	      0.00000000	    -31.10550062	     -1.45605455	      2.93085453	      8.57435175	    -14.07603742	     19.16330773	     41.09620303	     78.67770604	      0.00000000	      0.00000000	      0.77522286	    -19.31076434	     19.33982317	     42.44305207	     78.99117668	      0.00000000	      0.00000000
